# xmcd CD database file
#
# Track frame offsets:
#	150
#	22787
#	48650
#	72005
#	91120
#	111437
#	135102
#	161840
#	187623
#	212168
#	240681
#	267956
#
# Disc length: 3850 seconds
#
# Revision: 0
# Processed by: cddbd v1.5.1PL0 Copyright (c) Steve Scherf et al.
# Submitted via: CDex 1.51
#
DISCID=970f080c
DTITLE=Arturo Sandoval - Rediscovery On GRP [CD2]
DYEAR=1900
DGENRE=Jazz
TTITLE0=Daahoud
TTITLE1=Joy Spring
TTITLE2=Cherokee
TTITLE3=I Remember Clifford
TTITLE4=Caravan
TTITLE5=I Get A Kick Out Of You
TTITLE6=I Left This Space For You
TTITLE7=Africa
TTITLE8=A Mis Abuelos
TTITLE9=Danzon
TTITLE10=Conjunto
TTITLE11=Tres Palabras (Instrumental)
EXTD=
EXTT0=
EXTT1=
EXTT2=
EXTT3=
EXTT4=
EXTT5=
EXTT6=
EXTT7=
EXTT8=
EXTT9=
EXTT10=
EXTT11=
PLAYORDER=
